# xmcd
# 
# Track frame offsets:
#     150
#     18599
#     33771
#     51158
#     68686
#     97423
#     112594
#     139602
# 
# Disc length: 2082
# 
# Revision: 0
# Processed by: cddbd v1.5.2PL0 Copyright (c) Steve Scherf et al.
# Submitted via: fre:ac v1.0.17
# 
DISCID=62082008
DTITLE=Michael Staudenmeyer - MORE THAN EVER
DYEAR=2011
DGENRE=Blues
TTITLE0=don´t you dare
TTITLE1=bye bye bitch
TTITLE2=she belongs to me
TTITLE3=your baby is waiting home tonight
TTITLE4=my baby is gone
TTITLE5=bigger than fear
TTITLE6=bounded
TTITLE7=more than ever
EXTD=
EXTT0=
EXTT1=
EXTT2=
EXTT3=
EXTT4=
EXTT5=
EXTT6=
EXTT7=
PLAYORDER=
